<mxfile host="app.diagrams.net" modified="2020-12-30T09:14:55.932Z" agent="5.0 (Windows)" etag="t4hhR_sf3J6OwjmTtDKo" version="14.0.1" type="github">
  <diagram id="CI7eYQjG6aB1rbeyasJz" name="Page-1">
    <mxGraphModel dx="782" dy="427" grid="1" gridSize="10" guides="1" tooltips="1" connect="1" arrows="1" fold="1" page="1" pageScale="1" pageWidth="850" pageHeight="1100" math="0" shadow="0">
      <root>
        <mxCell id="0" />
        <mxCell id="1" parent="0" />
        <mxCell id="Au_yY5393NxEHC4TZjlr-1" value="1: درخواست خروج از حساب کاربری()" style="html=1;verticalAlign=bottom;endArrow=block;labelBackgroundColor=none;fontFamily=Verdana;fontSize=12;edgeStyle=elbowEdgeStyle;elbow=vertical;entryX=0;entryY=0.5;entryDx=0;entryDy=0;exitX=1;exitY=0.3333333333333333;exitDx=0;exitDy=0;exitPerimeter=0;" edge="1" parent="1" source="Au_yY5393NxEHC4TZjlr-3" target="Au_yY5393NxEHC4TZjlr-4">
          <mxGeometry y="20" relative="1" as="geometry">
            <mxPoint x="600" y="140" as="sourcePoint" />
            <mxPoint x="885" y="134" as="targetPoint" />
            <Array as="points" />
            <mxPoint as="offset" />
          </mxGeometry>
        </mxCell>
        <mxCell id="Au_yY5393NxEHC4TZjlr-2" value="2: حذف حساب کاربر(اطلاعات کاربر)" style="html=1;verticalAlign=bottom;endArrow=block;labelBackgroundColor=none;fontFamily=Verdana;fontSize=12;edgeStyle=elbowEdgeStyle;elbow=vertical;exitX=1;exitY=0.5;exitDx=0;exitDy=0;entryX=0;entryY=0.5;entryDx=0;entryDy=0;" edge="1" parent="1" source="Au_yY5393NxEHC4TZjlr-4">
          <mxGeometry y="20" relative="1" as="geometry">
            <mxPoint x="795" y="169.9999999999999" as="sourcePoint" />
            <mxPoint x="640" y="240" as="targetPoint" />
            <Array as="points" />
            <mxPoint as="offset" />
          </mxGeometry>
        </mxCell>
        <mxCell id="Au_yY5393NxEHC4TZjlr-3" value="کاربر" style="shape=umlActor;verticalLabelPosition=bottom;verticalAlign=top;html=1;outlineConnect=0;" vertex="1" parent="1">
          <mxGeometry x="50" y="220" width="30" height="60" as="geometry" />
        </mxCell>
        <mxCell id="Au_yY5393NxEHC4TZjlr-4" value="سیستم" style="rounded=0;whiteSpace=wrap;html=1;" vertex="1" parent="1">
          <mxGeometry x="310" y="210" width="120" height="60" as="geometry" />
        </mxCell>
        <mxCell id="Au_yY5393NxEHC4TZjlr-6" value="sign out" style="shape=note;whiteSpace=wrap;html=1;size=14;verticalAlign=top;align=left;spacingTop=-6;rounded=0;shadow=0;comic=0;labelBackgroundColor=none;strokeWidth=1;fontFamily=Verdana;fontSize=12" vertex="1" parent="1">
          <mxGeometry width="100" height="35" as="geometry" />
        </mxCell>
        <mxCell id="Au_yY5393NxEHC4TZjlr-7" value="دیتابیس خریدار" style="rounded=0;whiteSpace=wrap;html=1;" vertex="1" parent="1">
          <mxGeometry x="640" y="210" width="120" height="60" as="geometry" />
        </mxCell>
      </root>
    </mxGraphModel>
  </diagram>
</mxfile>
